<svg xmlns="http://www.w3.org/2000/svg" viewBox="0 0 1200 500" role="img" aria-label="Kaaval Assurance architecture flow">
  <defs>
    <pattern id="dots" width="28" height="28" patternUnits="userSpaceOnUse">
      <circle cx="2" cy="2" r="1" fill="#172233" opacity="0.7"/>
    </pattern>
    <marker id="arrowC" viewBox="0 0 10 10" refX="8.5" refY="5" markerWidth="7" markerHeight="7" orient="auto">
      <path d="M0,0 L10,5 L0,10 z" fill="#22d3ee"/>
    </marker>
    <marker id="arrowA" viewBox="0 0 10 10" refX="8.5" refY="5" markerWidth="7" markerHeight="7" orient="auto">
      <path d="M0,0 L10,5 L0,10 z" fill="#f5a623"/>
    </marker>
    <marker id="arrowG" viewBox="0 0 10 10" refX="8.5" refY="5" markerWidth="7" markerHeight="7" orient="auto">
      <path d="M0,0 L10,5 L0,10 z" fill="#34d399"/>
    </marker>
    <filter id="glowC" x="-80%" y="-80%" width="260%" height="260%">
      <feGaussianBlur stdDeviation="4" result="blur"/>
      <feMerge><feMergeNode in="blur"/><feMergeNode in="SourceGraphic"/></feMerge>
    </filter>
    <filter id="glowA" x="-80%" y="-80%" width="260%" height="260%">
      <feGaussianBlur stdDeviation="3" result="blur"/>
      <feMerge><feMergeNode in="blur"/><feMergeNode in="SourceGraphic"/></feMerge>
    </filter>
    <style>
      .sans{font-family:ui-sans-serif,-apple-system,"Segoe UI",Roboto,Helvetica,Arial,sans-serif}
      .mono{font-family:ui-monospace,SFMono-Regular,Menlo,Consolas,monospace}
      .node{fill:#0b1019;stroke-width:1.6}
      .title{fill:#e6edf3;font-size:16px;font-weight:700}
      .sub{fill:#7f8da3;font-size:11px}
      .label{fill:#6b7c93;font-size:11px}
      .flow{fill:none;stroke-width:2.2}
      .ghost{fill:none;stroke-width:1.6;stroke-dasharray:6 8;opacity:.72}
      .packet{filter:url(#glowC)}
      @media (prefers-reduced-motion: no-preference) {
        .pulse{animation:pulse 1.8s ease-in-out infinite}
        @keyframes pulse{50%{opacity:.45}}
      }
    </style>
  </defs>

  <rect width="1200" height="500" rx="18" fill="#060a11"/>
  <rect width="1200" height="500" rx="18" fill="url(#dots)"/>
  <rect x="1" y="1" width="1198" height="498" rx="17" fill="none" stroke="#152236"/>

  <text x="600" y="40" text-anchor="middle" class="sans" font-size="24" font-weight="800" letter-spacing="2.5" fill="#ffd166">INFERENCE ASSURANCE FLOW</text>
  <text x="600" y="66" text-anchor="middle" class="mono" font-size="12" fill="#7f8da3">local-first Gemma tier -> contract gate -> verified answer or governed escalation</text>

  <g class="sans">
    <rect class="node" x="68" y="184" width="152" height="62" rx="12" stroke="#16a5b8"/>
    <text class="title" x="144" y="212" text-anchor="middle" fill="#22d3ee">Task Input</text>
    <text class="sub" x="144" y="231" text-anchor="middle">telecom request</text>

    <rect class="node" x="292" y="172" width="190" height="86" rx="13" stroke="#22d3ee" filter="url(#glowC)"/>
    <text class="title" x="387" y="206" text-anchor="middle">Provider Router</text>
    <text class="sub" x="387" y="227" text-anchor="middle">threshold + tier policy</text>

    <rect class="node" x="572" y="94" width="204" height="64" rx="13" stroke="#f5a623"/>
    <text class="title" x="674" y="122" text-anchor="middle" fill="#f5a623">Gemma Local Tier</text>
    <text class="sub" x="674" y="141" text-anchor="middle">Ollama dev / ROCm + vLLM</text>

    <rect class="node" x="572" y="282" width="204" height="72" rx="13" stroke="#22d3ee" filter="url(#glowC)"/>
    <text class="title" x="674" y="312" text-anchor="middle">Layer 1 Verifier</text>
    <text class="sub" x="674" y="333" text-anchor="middle">JSON shape, fields, enums</text>

    <rect class="node" x="924" y="184" width="184" height="62" rx="12" stroke="#f5a623"/>
    <text class="title" x="1016" y="212" text-anchor="middle" fill="#f5a623">Fireworks Tier</text>
    <text class="sub" x="1016" y="231" text-anchor="middle">escalation, re-verified</text>

    <rect class="node" x="296" y="400" width="182" height="46" rx="23" stroke="#8b9bb0"/>
    <text class="title" x="387" y="429" text-anchor="middle" font-size="14">Trajectory Store</text>

    <rect class="node" x="626" y="400" width="170" height="46" rx="23" stroke="#a78bfa"/>
    <text class="title" x="711" y="429" text-anchor="middle" font-size="14" fill="#a78bfa">EWMA Drift</text>

    <rect class="node" x="928" y="400" width="176" height="46" rx="23" stroke="#34d399"/>
    <text class="title" x="1016" y="429" text-anchor="middle" font-size="14" fill="#34d399">Telemetry Truth</text>
  </g>

  <path id="p1" class="flow" d="M220 215 C250 215 260 215 286 215" stroke="#22d3ee" marker-end="url(#arrowC)"/>
  <path id="p2" class="ghost" d="M482 196 C520 126 538 124 566 126" stroke="#f5a623" marker-end="url(#arrowA)"/>
  <path id="p3" class="flow" d="M482 234 C526 308 540 318 566 318" stroke="#22d3ee" filter="url(#glowC)" marker-end="url(#arrowC)"/>
  <path id="p4" class="flow" d="M776 318 C826 318 840 273 918 222" stroke="#f5a623" stroke-dasharray="7 7" filter="url(#glowA)" marker-end="url(#arrowA)"/>
  <path id="p5" class="flow" d="M918 214 C840 184 825 130 782 126" stroke="#f5a623" stroke-dasharray="7 7" opacity=".8" marker-end="url(#arrowA)"/>
  <path id="p6" class="flow" d="M674 354 C674 390 580 423 484 423" stroke="#34d399" marker-end="url(#arrowG)"/>
  <path id="p7" class="flow" d="M478 423 C525 423 573 423 620 423" stroke="#a78bfa" stroke-dasharray="6 6" marker-end="url(#arrowA)"/>
  <path id="p8" class="flow" d="M796 423 C838 423 880 423 922 423" stroke="#34d399" marker-end="url(#arrowG)"/>

  <g class="mono">
    <circle cx="252" cy="215" r="11" fill="#22d3ee"/><text x="252" y="219" text-anchor="middle" font-size="10" font-weight="800" fill="#07101a">1</text>
    <circle cx="540" cy="318" r="11" fill="#22d3ee"/><text x="540" y="322" text-anchor="middle" font-size="10" font-weight="800" fill="#07101a">2</text>
    <circle cx="832" cy="269" r="11" fill="#f5a623"/><text x="832" y="273" text-anchor="middle" font-size="10" font-weight="800" fill="#07101a">3</text>
    <circle cx="859" cy="423" r="11" fill="#34d399"/><text x="859" y="427" text-anchor="middle" font-size="10" font-weight="800" fill="#07101a">4</text>
  </g>

  <g class="mono" font-size="11">
    <text class="label" x="252" y="190" text-anchor="middle">route local first</text>
    <text class="label" x="524" y="285" text-anchor="middle">contract checks</text>
    <text class="label" x="870" y="287" text-anchor="middle" fill="#f5a623">fail -> escalate</text>
    <text class="label" x="1016" y="388" text-anchor="middle" fill="#34d399">source-tagged claims</text>
  </g>

  <circle class="packet" r="7" fill="#22d3ee">
    <animateMotion dur="5s" repeatCount="indefinite" rotate="auto">
      <mpath href="#p1"/>
    </animateMotion>
  </circle>
  <circle class="packet" r="7" fill="#22d3ee">
    <animateMotion dur="5s" begin=".8s" repeatCount="indefinite" rotate="auto">
      <mpath href="#p3"/>
    </animateMotion>
  </circle>
  <circle r="6" fill="#f5a623" filter="url(#glowA)">
    <animateMotion dur="6s" begin="1.4s" repeatCount="indefinite" rotate="auto">
      <mpath href="#p4"/>
    </animateMotion>
  </circle>
  <circle r="6" fill="#34d399" class="pulse">
    <animateMotion dur="5s" begin="2.1s" repeatCount="indefinite" rotate="auto">
      <mpath href="#p8"/>
    </animateMotion>
  </circle>

  <text x="600" y="484" text-anchor="middle" class="mono" font-size="12" fill="#5c6b80">Click the diagram for the full interactive walkthrough</text>
</svg>
